Coordinates
version=1
nRows=15
nColumns=34
inDegrees=yes

Units are S.I. units (second, meters, Newtons, ...)
If the header above contains a line with 'inDegrees', this indicates whether rotational values are in degrees (yes) or radians (no).

endheader
time	pelvis_tilt	pelvis_list	pelvis_rotation	pelvis_tx	pelvis_ty	pelvis_tz	hip_flexion_r	hip_adduction_r	hip_rotation_r	knee_angle_r	ankle_angle_r	subtalar_angle_r	mtp_angle_r	hip_flexion_l	hip_adduction_l	hip_rotation_l	knee_angle_l	ankle_angle_l	subtalar_angle_l	mtp_angle_l	lumbar_extension	lumbar_bending	lumbar_rotation	arm_flex_r	arm_add_r	arm_rot_r	elbow_flex_r	pro_sup_r	arm_flex_l	arm_add_l	arm_rot_l	elbow_flex_l	pro_sup_l
      4.01666670	     -6.09183458	     -4.00696256	      2.25194347	      1.81784294	      0.93057712	      0.03771849	      1.89316141	      0.96298077	    -12.89828554	     13.72399696	    -16.56971357	     -3.99554421	      0.00000000	      0.44199773	    -10.19552020	     -2.25428239	      5.56408255	    -14.83760734	     -2.40909705	      0.00000000	     -3.09131237	     -3.51374468	      1.02932606	    143.25539033	    -20.45671537	     40.76767273	     41.55899202	     86.14462003	    123.71896953	     21.97030670	     33.87779139	     71.84052868	     98.14725824
      4.03333330	     -5.81759320	     -4.28208289	      2.25073038	      1.82032392	      0.92568395	      0.03766061	      2.77109577	      0.55052393	    -13.87428832	     16.30534090	    -15.74716173	     -3.26829000	      0.00000000	      0.15541725	    -10.50024088	     -2.26753674	      5.98838580	    -13.97701416	     -3.03986022	      0.00000000	     -3.75126642	     -2.96905164	      0.74543991	    140.77979018	    -22.49766905	     39.44441718	     45.38678736	     86.65466653	    122.19907829	     22.00421755	     35.46439717	     71.99560435	     98.87237453
      4.05000000	     -5.55661362	     -4.53985467	      2.22693594	      1.82296195	      0.92188961	      0.03816996	      3.97350976	     -0.14288830	    -14.92132222	     19.53650723	    -14.74887301	     -1.81855593	      0.00000000	     -0.02566518	    -10.89866353	     -2.20419007	      6.65844188	    -13.21778983	     -3.43494590	      0.00000000	     -4.33023752	     -2.40450223	      0.55811986	    138.10499132	    -24.33162577	     38.07525676	     48.69098716	     87.27138180	    120.31127455	     21.67166545	     37.31037178	     72.64811703	     99.46353736
      4.06666670	     -5.39099731	     -4.77551399	      2.04857127	      1.82603357	      0.91925106	      0.03884205	      5.54894188	     -1.23197563	    -16.27604963	     23.35056440	    -13.58212520	      0.85101026	      0.00000000	     -0.23090420	    -11.34778724	     -2.28099120	      7.28873674	    -12.54002546	     -3.55086578	      0.00000000	     -4.68289739	     -1.74570251	      0.75599323	    135.82253001	    -25.75780224	     37.66856432	     50.75614729	     87.52033190	    117.84190266	     21.13341000	     39.12873772	     73.80287862	     99.69685583
      4.08333330	     -5.44841763	     -5.01488786	      1.92687593	      1.82968085	      0.91700904	      0.03925604	      7.46884834	     -2.58600215	    -17.68584155	     27.36264647	    -12.80762568	      3.49253390	      0.00000000	     -0.15222419	    -11.81861545	     -1.92471172	      8.09364195	    -11.40499512	     -3.65615146	      0.00000000	     -4.77032704	     -1.28998698	      0.35293608	    131.86235762	    -26.80731858	     34.21617393	     54.16523316	     87.78040717	    115.69681090	     20.71387898	     40.57710253	     74.29063348	     99.90668724
      4.10000000	     -5.20858865	     -5.12432782	      1.54404540	      1.83404764	      0.91565104	      0.03963330	      9.11605156	     -4.39417480	    -19.10595228	     31.40476494	    -11.89789069	      6.84296116	      0.00000000	     -0.82318973	    -12.10550061	     -2.00719037	      8.36239212	    -10.54828658	     -3.40485420	      0.00000000	     -5.08494989	     -0.73183644	      0.59922927	    128.89608608	    -27.59392715	     33.67811393	     55.54923245	     87.85822848	    112.91268803	     20.18458510	     42.24158455	     75.34237245	     99.98652865
      4.11666670	     -5.53177796	     -5.17707121	      1.34741449	      1.83907197	      0.91416898	      0.04061241	     11.16952071	     -6.31738850	    -20.52487279	     34.83145770	    -11.46645883	      8.73391275	      0.00000000	     -0.71371869	    -12.37675869	     -2.10801801	      8.79297293	     -9.42363322	     -2.91600619	      0.00000000	     -4.67533824	     -0.46406722	     -0.03221773	    123.25193106	    -27.69545250	     28.24857001	     59.49184059	     87.75311360	    108.91392127	     19.11668638	     44.39864222	     77.43866361	     99.91790179
      4.13333330	     -5.50076773	     -5.00547791	      1.16030115	      1.84475547	      0.91338399	      0.04192515	     12.55481468	     -8.40341805	    -21.70314323	     37.29905445	    -10.55101012	     10.34241224	      0.00000000	     -1.24981143	    -12.42294022	     -2.29846101	      8.78808508	     -8.66797431	     -2.02642666	      0.00000000	     -4.57029864	     -0.26823651	     -0.26066319	    117.88897373	    -27.57927006	     24.46489824	     62.52783054	     88.05070435	    104.58838683	     17.75235618	     46.66385237	     79.49439059	     99.73970939
      4.15000000	     -5.48068711	     -4.69010249	      1.15572428	      1.85117234	      0.91210240	      0.04279617	     13.66334446	    -10.46543603	    -22.61676644	     38.61614011	     -9.27434281	     11.23660755	      0.00000000	     -1.78348829	    -12.32658062	     -2.32964884	      8.79167265	     -7.68748274	     -0.89032601	      0.00000000	     -4.45939839	     -0.04414182	     -0.27835156	    112.71099373	    -27.52101204	     21.55006255	     65.57184460	     88.23790252	    100.04266384	     15.93486044	     48.95854124	     81.96545085	     99.56473386
      4.16666670	     -5.38912018	     -4.31470680	      1.30054848	      1.85856138	      0.90997983	      0.04394889	     14.37559936	    -12.29814822	    -23.26440322	     38.62945523	     -7.99708246	     10.57205835	      0.00000000	     -2.47552314	    -12.15607254	     -2.77625892	      8.64577965	     -6.97702197	      0.22667872	      0.00000000	     -4.31329009	      0.07233203	     -0.72668490	    106.52213198	    -26.43672631	     16.81721601	     68.33698079	     88.45851046	     95.64991475	     13.88053477	     51.22707416	     84.27672496	     99.14997692
      4.18333330	     -5.37620648	     -3.91484742	      1.66368082	      1.86621394	      0.90728609	      0.04640016	     14.92398968	    -13.90750874	    -23.57595574	     37.52042874	     -6.65901054	      9.00638097	      0.00000000	     -3.03418913	    -11.96450644	     -2.98273995	      8.58775327	     -6.10199363	      1.40865444	      0.00000000	     -4.03996040	      0.42860551	     -1.06411339	    101.29524406	    -24.97786336	     13.09300470	     70.26149594	     88.63729714	     91.11501378	     11.29261037	     53.55606011	     86.69760995	     98.70538140
      4.20000000	     -5.38120677	     -3.55205170	      2.09976959	      1.87372730	      0.90325993	      0.05075619	     15.32092499	    -15.15073058	    -23.42899527	     35.37738932	     -5.69962355	      5.80408511	      0.00000000	     -3.51991917	    -11.89223975	     -3.37250204	      8.63109397	     -5.38599126	      2.39562387	      0.00000000	     -3.56984678	      0.70488542	     -2.10880418	     97.04405594	    -22.23026402	     10.22031356	     69.29543505	     88.96741123	     86.99635739	      8.39827827	     55.46359752	     88.44641275	     97.97471192
      4.21666670	     -5.49702424	     -3.23511604	      2.44168224	      1.88070650	      0.89885912	      0.05563969	     15.76726726	    -16.07886234	    -22.70827580	     32.41803752	     -5.37644819	      1.33820431	      0.00000000	     -3.85957688	    -11.91028405	     -3.72139784	      8.76259043	     -4.85027842	      3.24655015	      0.00000000	     -2.86343897	      0.98604502	     -4.08231540	     92.51997302	    -17.78513527	      7.19122064	     67.02904190	     89.47376121	     82.87365221	      4.43301141	     57.20307076	     90.68614639	     96.75581289
      4.23333330	     -5.67638222	     -2.97484408	      2.57769455	      1.88763200	      0.89522248	      0.05985531	     16.15699161	    -16.71688609	    -21.58492871	     28.70971653	     -6.00756357	     -4.32385010	      0.00000000	     -4.21148800	    -11.97796342	     -3.99448833	      8.79918638	     -4.50842101	      3.91791032	      0.00000000	     -2.06867523	      1.36459614	     -6.18803961	     89.07751185	    -12.47092043	      3.90101883	     63.65821309	     90.32402081	     78.78428079	      0.43982678	     58.27321773	     92.62555457	     94.73692451
      4.25000000	     -6.09617522	     -2.90608323	      2.69762594	      1.89545520	      0.89316754	      0.06347446	     16.44298019	    -16.83339561	    -19.58139781	     24.19770222	     -8.45078761	    -11.18571835	      0.00000000	     -4.19519798	    -12.23684812	     -3.64153320	      9.01874145	     -3.92885469	      4.26023172	      0.00000000	     -1.16713894	      1.68309607	     -8.33866304	     83.58559638	     -8.05487369	      2.07709326	     63.81575902	     90.68727447	     74.06971683	     -3.63827094	     59.49754509	     94.25299261	     93.30715434
